<svg height="590" width="720" xmlns="http://www.w3.org/2000/svg">
<rect height="590" fill="#555" width="720"></rect>
<text fill="#7f7" font-family="Courier New" font-size="12" xml:space="preserve">
<tspan x="10" y="26">3 megabytes installed</tspan>
<tspan x="10" y="42"></tspan>
<tspan x="10" y="58">node_modules</tspan>
<tspan x="10" y="74">└─┬ level-sublevel@6.6.1 </tspan>
<tspan x="10" y="90">  ├─┬ bytewise@1.1.0 </tspan>
<tspan x="10" y="106">  │ ├─┬ bytewise-core@1.2.3 </tspan>
<tspan x="10" y="122">  │ │ └── typewise-core@1.2.0 </tspan>
<tspan x="10" y="138">  │ └── typewise@1.0.3 </tspan>
<tspan x="10" y="154">  ├─┬ levelup@0.19.1 </tspan>
<tspan x="10" y="170">  │ ├── bl@0.8.2 </tspan>
<tspan x="10" y="186">  │ ├─┬ deferred-leveldown@0.2.0 </tspan>
<tspan x="10" y="202">  │ │ └─┬ abstract-leveldown@0.12.4 </tspan>
<tspan x="10" y="218">  │ │   └── xtend@3.0.0 </tspan>
<tspan x="10" y="234">  │ ├── errno@0.1.4 </tspan>
<tspan x="10" y="250">  │ ├── prr@0.0.0 </tspan>
<tspan x="10" y="266">  │ ├─┬ readable-stream@1.0.34 </tspan>
<tspan x="10" y="282">  │ │ ├── core-util-is@1.0.2 </tspan>
<tspan x="10" y="298">  │ │ ├── inherits@2.0.3 </tspan>
<tspan x="10" y="314">  │ │ ├── isarray@0.0.1 </tspan>
<tspan x="10" y="330">  │ │ └── string_decoder@0.10.31 </tspan>
<tspan x="10" y="346">  │ ├── semver@5.1.1 </tspan>
<tspan x="10" y="362">  │ └── xtend@3.0.0 </tspan>
<tspan x="10" y="378">  ├── ltgt@2.1.3 </tspan>
<tspan x="10" y="394">  ├─┬ pull-level@2.0.3 </tspan>
<tspan x="10" y="410">  │ ├── level-post@1.0.5 </tspan>
<tspan x="10" y="426">  │ ├── pull-cat@1.1.11 </tspan>
<tspan x="10" y="442">  │ ├── pull-live@1.0.1 </tspan>
<tspan x="10" y="458">  │ ├── pull-pushable@2.0.1 </tspan>
<tspan x="10" y="474">  │ ├─┬ pull-window@2.1.4 </tspan>
<tspan x="10" y="490">  │ │ └── looper@2.0.0 </tspan>
<tspan x="10" y="506">  │ └─┬ stream-to-pull-stream@1.7.2 </tspan>
<tspan x="10" y="522">  │   └── looper@3.0.0 </tspan>
<tspan x="10" y="538">  ├── pull-stream@3.5.0 </tspan>
<tspan x="10" y="554">  ├── typewiselite@1.0.0 </tspan>
<tspan x="10" y="570">  └── xtend@4.0.1</tspan>
</text>
</svg>
